<?xml version="1.0" standalone="no"?>
<!DOCTYPE svg PUBLIC "-//W3C//DTD SVG 20010904//EN"
 "http://www.w3.org/TR/2001/REC-SVG-20010904/DTD/svg10.dtd">
<svg version="1.0" xmlns="http://www.w3.org/2000/svg"
 width="256.000000pt" height="256.000000pt" viewBox="0 0 256.000000 256.000000"
 preserveAspectRatio="xMidYMid meet">

<g transform="translate(0.000000,256.000000) scale(0.100000,-0.100000)"
fill="#000000" stroke="none">
<path d="M1330 2496 c0 -2 8 -10 18 -17 15 -13 16 -12 3 4 -13 16 -21 21 -21
13z"/>
<path d="M1252 2436 c-13 -18 -26 -50 -29 -70 -5 -31 -3 -36 11 -30 30 11 66
-16 66 -49 0 -28 -12 -44 -53 -68 -13 -8 -19 -6 -24 8 -3 10 -13 26 -20 35
-15 17 -9 43 8 32 5 -3 7 -9 4 -14 -3 -5 0 -12 6 -16 18 -11 30 19 15 35 -10
9 -25 11 -50 7 l-35 -7 25 -36 c21 -31 24 -48 25 -122 l1 -86 22 70 c22 70 22
70 57 67 24 -2 42 4 64 22 28 24 29 25 8 26 -12 0 -34 -5 -50 -10 l-28 -11 30
29 c17 15 32 27 34 25 6 -4 31 18 31 28 0 5 -7 9 -15 9 -8 0 -21 13 -30 29
-10 21 -24 31 -43 33 -27 3 -28 5 -20 36 7 26 14 32 35 32 21 0 24 2 13 15
-19 23 -33 18 -58 -19z"/>
<path d="M1390 2426 c0 -2 8 -10 18 -17 15 -13 16 -12 3 4 -13 16 -21 21 -21
13z"/>
<path d="M1447 2355 c10 -13 22 -25 27 -25 5 0 -1 11 -14 25 -30 32 -36 32
-13 0z"/>
<path d="M2250 2365 c-6 -8 -9 -19 -5 -26 4 -6 2 -15 -4 -19 -13 -7 -5 -60 9
-60 15 0 42 39 34 51 -4 8 -3 10 4 5 7 -4 12 -2 12 3 0 6 -5 11 -12 11 -6 0
-4 6 7 13 10 8 15 19 11 25 -10 17 -41 15 -56 -3z m20 -59 c0 -11 -19 -15 -25
-6 -3 5 1 10 9 10 9 0 16 -2 16 -4z"/>
<path d="M1481 2352 c11 -17 6 -36 -35 -144 -26 -67 -51 -132 -56 -143 -9 -17
-9 -17 -5 5 7 32 -9 6 -19 -30 -6 -19 -5 -21 3 -10 7 9 11 10 11 3 0 -23 -21
-24 -128 -8 -59 9 -122 18 -139 21 l-32 5 -3 143 -3 144 -89 -39 c-50 -21
-115 -54 -145 -73 l-56 -35 3 -90 3 -91 -61 -73 c-33 -40 -60 -79 -60 -85 0
-6 14 -27 31 -47 l31 -35 -64 -82 c-85 -110 -93 -126 -29 -55 29 31 57 57 63
57 5 0 -7 -31 -27 -69 -43 -82 -63 -150 -71 -253 -7 -83 -24 -112 -70 -124
-23 -6 -24 -7 -7 -20 16 -13 15 -13 -10 -4 -16 5 -42 10 -59 10 -24 0 -28 -3
-19 -13 6 -8 29 -22 51 -32 26 -12 36 -21 29 -26 -22 -13 70 -31 122 -24 44 6
49 5 49 -13 0 -10 -27 -45 -60 -76 -57 -54 -130 -96 -223 -126 -35 -11 -41
-10 -65 11 -21 19 -23 19 -9 3 9 -11 17 -24 17 -27 0 -12 -84 5 -110 22 -13 9
-21 11 -17 5 4 -8 -6 -9 -36 -3 -23 4 -43 6 -45 5 -8 -9 127 -59 162 -60 27
-1 54 -11 76 -27 48 -36 93 -49 164 -48 l61 1 -58 12 c-33 7 -67 22 -80 34
l-21 22 35 0 c29 0 141 25 248 56 20 6 22 4 15 -9 -16 -28 -74 -87 -86 -87 -6
0 -9 -3 -5 -6 9 -9 114 54 121 72 4 10 13 14 22 10 10 -4 14 -1 11 6 -2 7 4
24 13 38 10 14 34 55 54 92 32 60 34 69 24 99 -9 25 -9 34 1 37 9 3 8 7 -3 16
-9 6 -20 38 -25 71 -5 33 -17 85 -26 116 -14 48 -15 65 -5 113 6 31 15 56 19
56 15 0 21 -73 8 -89 -9 -12 -9 -13 1 -7 22 13 13 -12 -10 -28 -16 -11 -18
-16 -7 -16 8 0 20 -10 25 -22 6 -13 9 -17 7 -9 -2 8 4 22 13 32 18 20 40 26
29 9 -3 -5 0 -10 7 -10 10 0 10 -2 -1 -9 -8 -5 -11 -16 -6 -30 6 -21 7 -21 28
6 12 15 21 34 19 41 -2 8 1 11 8 7 6 -3 10 -12 9 -18 -1 -7 5 -28 14 -47 l16
-35 1 28 c0 16 -5 38 -12 50 -14 28 -55 67 -62 59 -3 -3 -16 3 -28 14 -19 17
-21 17 -15 2 4 -10 2 -18 -3 -18 -18 0 -12 80 6 87 37 14 66 -10 89 -73 12
-34 30 -75 41 -92 25 -39 110 -112 151 -128 41 -18 59 -18 46 -1 -6 6 -13 20
-16 30 -6 15 -4 16 15 6 20 -11 19 -9 -5 20 -15 18 -27 39 -27 47 0 9 -5 12
-11 8 -8 -5 -8 -1 0 13 7 15 6 25 -5 41 -8 12 -11 22 -5 22 9 0 27 -38 23 -51
0 -4 10 -17 24 -30 15 -14 23 -17 19 -8 -4 10 3 19 20 27 37 17 51 15 51 -8 0
-11 -4 -20 -8 -20 -4 0 -8 -10 -7 -22 0 -13 3 -18 5 -11 3 7 12 9 20 6 8 -3
14 0 14 6 0 6 12 16 27 22 20 7 24 12 14 18 -8 6 -9 11 -3 15 13 8 26 -10 17
-23 -3 -5 2 -16 11 -25 8 -9 16 -25 17 -37 1 -19 2 -19 14 -3 7 10 13 25 13
33 0 11 3 12 12 3 9 -9 9 -18 0 -36 -9 -21 -9 -24 3 -19 22 8 19 -24 -6 -59
-12 -16 -36 -39 -53 -49 -28 -17 -29 -19 -8 -19 12 0 22 5 22 12 0 9 3 9 12 0
9 -9 8 -16 -5 -30 -9 -10 -15 -21 -12 -24 3 -2 -1 -5 -7 -5 -7 -1 -40 -13 -72
-26 l-59 -25 47 -7 c33 -5 44 -10 35 -16 -10 -6 -7 -9 11 -10 l25 0 -22 -11
-23 -11 31 -23 31 -22 -44 -25 c-88 -50 -86 -49 -53 -43 25 4 68 21 139 54 19
9 -21 -37 -62 -71 -30 -25 -56 -38 -90 -42 -70 -10 -82 -15 -83 -33 0 -9 -9
17 -19 58 -11 41 -19 75 -20 76 0 0 18 6 41 13 23 7 39 14 37 16 -2 2 -35 -6
-75 -17 l-71 -22 -71 59 c-39 31 -82 71 -96 87 l-24 29 -7 -27 c-12 -49 3
-216 25 -274 12 -30 21 -56 21 -57 0 -2 -15 -3 -32 -3 -119 0 -178 -68 -195
-224 -5 -49 -12 -67 -39 -95 l-32 -35 -57 62 c-38 40 -66 62 -80 62 -18 0 -21
-4 -17 -25 2 -14 8 -28 13 -31 5 -3 9 -11 9 -19 0 -24 -61 -185 -70 -185 -5 0
-37 26 -72 57 -35 32 -60 53 -56 49 4 -5 -10 -28 -30 -51 -54 -61 -133 -205
-130 -235 2 -19 13 -28 48 -42 37 -14 80 -17 245 -17 l200 0 28 35 29 34 -24
0 c-18 0 -28 9 -41 37 -9 20 -15 38 -14 40 2 1 18 4 37 5 30 3 36 -1 57 -37
l23 -40 0 56 c0 50 3 57 26 68 15 6 24 14 21 18 -4 3 -12 1 -20 -5 -8 -7 -18
-7 -27 -2 -12 8 -9 10 10 11 44 3 55 5 73 13 11 5 23 4 30 -3 6 -6 18 -11 27
-11 18 0 65 -63 50 -68 -5 -2 -10 -8 -10 -14 0 -6 7 -8 15 -5 8 4 16 3 19 -1
3 -4 -9 -9 -25 -10 -19 -2 -28 2 -24 8 3 5 -3 10 -14 10 -11 0 -23 -5 -26 -10
-15 -24 -22 -7 -14 31 6 25 6 46 -1 57 -7 13 -9 6 -10 -30 0 -26 -5 -50 -10
-53 -6 -4 -8 -11 -5 -16 3 -5 0 -7 -7 -4 -7 3 -24 -5 -38 -16 -21 -17 -22 -19
-5 -15 73 19 75 18 125 -14 27 -18 50 -35 50 -40 0 -4 -10 -12 -23 -18 -16 -8
75 -11 342 -11 351 -1 363 0 347 17 -9 10 -13 22 -9 25 3 4 -7 7 -24 7 -17 0
-45 10 -64 23 -19 12 -53 28 -76 35 -51 15 -93 49 -117 94 -13 24 -35 41 -82
62 -91 41 -102 50 -85 70 17 20 72 20 130 0 24 -8 50 -13 57 -10 7 3 16 24 21
48 7 33 13 44 30 46 16 2 20 8 16 20 -4 11 2 8 16 -8 19 -21 25 -23 51 -13 21
8 30 8 34 -1 3 -8 7 -8 13 0 13 17 52 36 63 29 5 -3 12 -28 16 -55 4 -34 11
-50 24 -53 20 -5 29 -45 31 -136 1 -36 4 -56 6 -43 5 28 19 28 33 1 11 -19 6
-58 -16 -136 l-6 -23 157 0 c153 0 158 1 142 18 -15 16 -15 19 -2 19 8 0 13
-3 10 -5 -3 -3 0 -11 6 -19 13 -15 169 -19 169 -5 0 5 -9 35 -20 66 l-19 57
28 -23 c15 -13 51 -42 79 -65 l52 -41 45 14 c52 15 86 37 131 86 32 33 74 104
74 123 0 6 -28 25 -62 42 l-63 32 68 0 c57 1 67 4 67 19 0 17 -61 41 -117 45
-39 3 -19 21 50 47 64 23 67 26 67 58 0 30 -2 32 -21 21 -37 -19 -203 -79
-222 -79 -17 0 -27 6 -66 40 -9 8 -28 21 -43 29 -14 7 -32 24 -39 38 -12 23
-14 23 -26 7 -15 -20 -18 -7 -4 15 9 14 -12 46 -30 46 -4 0 -11 4 -16 9 -5 5
-3 6 5 2 16 -9 15 -7 -7 40 -20 42 -74 192 -85 237 -9 39 12 35 65 -11 68 -59
177 -128 275 -173 237 -109 214 -108 214 -10 l0 80 -56 16 c-71 21 -213 95
-284 148 -30 23 -59 41 -63 39 -5 -1 -6 1 -3 6 3 5 -7 18 -22 29 -31 23 -69
83 -53 83 6 0 32 -16 58 -37 55 -42 134 -79 200 -93 36 -9 50 -8 68 4 29 19
55 75 55 119 0 54 -8 67 -44 66 -17 0 -26 -3 -19 -5 8 -4 7 -14 -5 -35 -16
-29 -20 -30 -70 -26 l-52 4 27 -19 28 -18 -30 0 c-17 0 -40 7 -51 15 -12 8
-24 11 -28 8 -3 -3 -6 -1 -6 5 0 6 -10 16 -21 23 -16 8 -20 8 -14 -1 11 -18
-49 16 -66 37 -13 17 -13 17 6 2 11 -9 27 -19 35 -23 8 -4 2 3 -15 16 -70 53
-125 112 -145 155 -12 25 -20 47 -18 49 2 2 22 9 43 16 40 13 40 14 40 66 -1
50 0 52 32 63 27 8 33 16 33 38 0 15 -9 36 -20 46 -25 23 -25 37 -1 59 18 16
22 16 50 2 40 -21 45 -20 21 4 -11 11 -20 27 -20 35 0 8 9 15 20 15 11 0 20 5
20 10 0 6 -4 10 -8 10 -4 0 -6 15 -4 33 2 23 -6 48 -33 92 -70 115 -69 109
-30 139 l34 27 15 -35 c14 -33 41 -56 66 -56 6 0 8 5 5 10 -3 6 1 13 9 16 9 3
16 11 16 18 0 7 15 16 33 21 27 8 32 15 32 40 0 21 -7 33 -23 41 l-22 11 20
18 c14 12 18 25 14 39 -9 29 -10 29 -42 18 -27 -9 -29 -8 -24 14 2 13 9 24 16
24 6 0 4 5 -4 10 -10 6 -22 4 -37 -6 -29 -18 -29 -5 -3 46 11 22 18 40 15 40
-2 0 -14 -18 -25 -40 -21 -41 -40 -45 -40 -9 0 11 -4 18 -10 14 -6 -4 -6 -15
1 -32 11 -29 8 -124 -3 -116 -5 2 -8 -6 -8 -19 0 -14 -15 -35 -40 -55 -21 -18
-41 -33 -43 -33 -2 0 -26 28 -53 63 -62 80 -174 191 -244 244 -91 68 -150 93
-230 100 -71 6 -72 6 -59 -15z m36 -78 c-3 -3 -12 -4 -19 -1 -8 3 -5 6 6 6 11
1 17 -2 13 -5z m96 -28 c71 -27 132 -57 162 -80 11 -9 -11 0 -50 20 -38 19
-99 46 -135 59 -36 13 -59 24 -53 24 7 1 41 -10 76 -23z m-39 -17 c-4 -7 0 -9
12 -6 11 3 42 -5 69 -19 28 -13 43 -22 34 -20 -12 3 -23 -18 -49 -87 -18 -51
-35 -98 -37 -104 -3 -7 2 -13 10 -13 8 0 20 -6 26 -14 10 -11 8 -15 -6 -19
-14 -4 -13 -5 5 -6 16 -1 22 5 22 18 0 11 -4 22 -9 25 -5 3 -6 20 -2 38 6 31
9 33 58 34 45 2 52 0 62 -22 6 -14 11 -35 11 -47 0 -20 4 -22 40 -19 32 3 40
1 40 -12 0 -9 7 -16 15 -16 9 0 12 -6 8 -17 -10 -28 -34 -52 -47 -47 -6 2 -20
-2 -30 -9 -17 -13 -16 -14 12 -9 26 3 33 0 47 -28 9 -18 12 -29 7 -26 -6 3
-13 0 -15 -6 -3 -7 -6 -1 -6 14 -1 15 -5 29 -9 32 -5 3 -6 -8 -4 -25 4 -28 3
-29 -35 -29 -41 0 -63 14 -63 39 0 11 6 9 23 -7 39 -36 39 -25 1 14 -20 19
-39 32 -43 28 -3 -4 -1 -9 6 -11 18 -7 4 -32 -15 -27 -9 3 -6 -1 8 -9 l24 -15
-37 -22 c-22 -13 -34 -27 -30 -33 3 -7 2 -8 -2 -4 -10 8 -13 20 -21 69 -4 25
-3 29 5 18 9 -13 13 -13 28 4 17 18 16 18 -49 11 -63 -6 -67 -5 -99 23 l-33
29 22 19 c26 22 32 80 6 70 -8 -3 -12 -2 -9 4 3 5 -4 7 -16 5 -15 -3 -19 0
-15 11 3 9 6 18 6 21 0 2 7 -3 16 -12 10 -9 25 -14 35 -12 11 3 19 1 19 -4 0
-5 5 -9 11 -9 8 0 8 5 -1 15 -7 8 -16 13 -20 10 -5 -3 -11 -1 -14 4 -4 5 -2
12 4 16 18 11 47 79 48 111 1 28 -2 30 -24 26 -22 -4 -24 -2 -16 19 5 13 7 30
5 37 -3 6 0 12 7 12 6 0 8 -5 4 -11z m164 -118 c-10 -34 -23 -51 -42 -51 -12
0 3 53 18 65 13 10 16 16 16 38 0 9 3 8 9 -2 5 -8 4 -29 -1 -50z m83 22 c13
-16 12 -17 -3 -4 -10 7 -18 15 -18 17 0 8 8 3 21 -13z m389 -8 c-7 -8 -17 -15
-22 -15 -6 0 -5 7 2 15 7 8 17 15 22 15 6 0 5 -7 -2 -15z m-13 -47 c-3 -8 -6
-5 -6 6 -1 11 2 17 5 13 3 -3 4 -12 1 -19z m73 1 c0 -5 -7 -9 -15 -9 -9 0 -12
6 -9 15 6 15 24 11 24 -6z m-789 -76 c-12 -20 -14 -14 -5 12 4 9 9 14 11 11 3
-2 0 -13 -6 -23z m809 -7 c0 -3 -4 -8 -10 -11 -5 -3 -10 -1 -10 4 0 6 5 11 10
11 6 0 10 -2 10 -4z m-869 -17 c44 -15 44 -16 30 -33 -11 -13 -9 -13 13 -3 16
8 21 15 15 23 -6 8 -1 10 19 9 41 -3 42 -3 42 -25 0 -17 -7 -20 -39 -20 -44 0
-65 -18 -32 -27 16 -4 20 -11 16 -24 -4 -11 -2 -19 5 -19 9 0 31 -40 26 -47
-1 -1 -44 14 -96 33 -52 19 -80 32 -62 28 l32 -6 0 55 c0 35 -5 57 -12 60 -26
11 10 7 43 -4z m-140 -179 c208 -47 369 -115 369 -157 0 -16 8 -25 25 -29 14
-3 22 -10 19 -15 -3 -5 0 -9 5 -9 6 0 11 -17 10 -37 -1 -50 -22 -169 -32 -179
-4 -4 -7 -15 -7 -25 0 -10 -8 -23 -17 -28 -10 -6 -14 -11 -9 -11 17 0 -17 -30
-34 -30 -10 0 -20 -6 -23 -12 -3 -10 -8 -9 -22 2 -10 8 -16 10 -12 3 4 -7 -1
-14 -13 -18 -11 -4 -17 -11 -14 -17 4 -6 3 -8 -2 -5 -13 8 -32 -4 -36 -23 -4
-18 -28 -39 -45 -40 -12 0 43 84 83 126 12 13 20 25 17 28 -3 3 2 26 11 52 9
27 16 79 16 118 -1 81 -10 73 -31 -24 l-13 -65 -13 110 c-19 168 -24 194 -33
170 -4 -11 -3 -28 2 -39 6 -10 8 -31 6 -47 -3 -16 -1 -29 4 -29 4 0 8 -7 8
-15 0 -8 -4 -15 -10 -15 -5 0 -10 -13 -10 -29 0 -17 -4 -32 -10 -36 -5 -3 -8
-11 -6 -18 1 -7 1 -9 -1 -5 -3 4 -3 9 -2 10 6 7 -93 98 -101 93 -4 -3 -11 3
-14 12 -3 10 -4 6 -2 -9 4 -32 -14 -37 -39 -12 -39 39 -65 112 -67 186 -1 54
-3 39 -8 -56 -5 -92 -11 -131 -21 -137 -20 -13 -27 -11 -33 9 -3 9 -4 -9 -1
-40 4 -66 -4 -73 -28 -25 l-16 32 0 -27 c-1 -15 -5 -29 -11 -33 -13 -8 -81 87
-74 105 4 11 2 12 -5 4 -8 -7 -8 -26 -2 -60 l9 -49 -19 24 c-10 13 -19 29 -19
36 0 7 -6 15 -12 17 -9 3 -14 34 -15 99 -2 68 0 89 7 74 8 -16 9 -12 6 18 -3
25 -1 35 6 31 6 -4 9 -1 6 7 -3 8 6 22 19 32 13 10 20 23 17 29 -10 15 127 2
237 -22z m371 -44 c-2 -4 -8 -3 -12 4 -6 9 -9 9 -13 -1 -3 -8 -6 -5 -6 8 -1
12 2 29 6 38 5 14 8 12 18 -11 7 -16 10 -33 7 -38z m82 -7 c5 -4 -2 -6 -17 -6
-19 2 -23 5 -15 15 6 7 14 9 17 5 3 -4 10 -11 15 -14z m49 -16 c11 4 14 1 11
-8 -3 -8 6 -21 20 -30 28 -18 34 -35 13 -35 -7 0 -18 9 -25 20 -15 24 -32 18
-32 -11 0 -10 -5 -19 -11 -19 -7 0 -8 11 -4 30 6 29 -3 37 -38 31 -5 -1 -6 3
-3 8 3 5 15 7 26 4 16 -4 19 -2 14 13 -4 15 -4 16 4 5 6 -8 17 -11 25 -8z
m-848 -23 c-8 -16 -15 -33 -15 -39 0 -5 -5 -22 -12 -38 -6 -15 -12 -34 -14
-41 -7 -34 -14 -21 -10 19 5 43 26 106 42 122 18 17 23 5 9 -23z m-57 -45
c-12 -21 -24 -33 -26 -27 -2 7 -9 9 -14 5 -8 -4 -9 2 -5 18 4 13 7 27 7 31 0
3 8 4 19 1 10 -3 22 0 26 7 4 6 9 9 11 7 3 -2 -5 -22 -18 -42z m92 -44 l0 -69
-34 10 c-32 10 -33 12 -22 37 19 43 46 91 51 91 3 0 5 -31 5 -69z m292 -79
c-32 -5 -35 0 -27 49 l7 43 22 -45 21 -44 -23 -3z m548 -128 c28 -33 123 -4
141 43 7 20 5 35 -9 64 -11 22 -16 39 -13 39 14 0 41 -71 41 -105 0 -44 -18
-60 -86 -80 -50 -14 -58 -15 -79 -1 -31 20 -49 78 -41 129 11 67 21 65 28 -6
3 -37 12 -75 18 -83z m260 131 c9 -11 10 -19 2 -27 -14 -14 -32 -1 -32 23 0
23 13 25 30 4z m-745 -61 c15 -25 29 -43 32 -40 4 3 -1 14 -9 23 -19 23 -30
53 -19 53 16 0 33 -30 36 -65 3 -33 2 -35 -18 -29 -12 3 -28 11 -35 17 -9 7
-11 6 -6 -8 6 -15 2 -17 -29 -13 -27 3 -33 1 -26 -8 6 -8 4 -16 -7 -25 -24
-19 -36 6 -29 61 10 75 13 80 50 80 29 0 37 -6 60 -46z m-113 9 c-5 -25 -6
-25 -13 -8 -11 29 -10 35 5 35 9 0 12 -8 8 -27z m231 -80 c28 -29 46 -53 39
-53 -19 0 -63 31 -57 40 3 5 0 12 -6 16 -8 4 -9 3 -5 -4 4 -7 3 -12 -1 -12 -5
0 -16 18 -26 40 -19 44 -23 77 -5 45 6 -11 33 -44 61 -72z m-777 -7 c-4 -24
-14 -50 -23 -57 -14 -12 -15 -9 -8 31 8 49 23 85 32 76 3 -3 2 -25 -1 -50z
m180 -71 c7 -27 6 -29 -9 -16 -10 7 -17 25 -17 39 0 33 16 18 26 -23z m354
-12 c0 -4 -11 4 -25 17 -14 13 -25 27 -25 31 0 5 11 -3 25 -17 14 -14 25 -28
25 -31z m-341 -60 c14 -49 5 -55 -14 -10 -18 43 -18 47 -5 47 5 0 14 -17 19
-37z m-297 -38 c-8 -16 -9 -16 -15 -1 -4 10 -3 15 3 11 6 -3 10 -1 10 6 0 7 3
10 6 6 3 -3 2 -13 -4 -22z m1116 -152 c-21 -50 -60 -95 -94 -109 -49 -20 -164
-16 -164 6 0 4 23 10 52 13 61 8 146 48 184 88 34 36 37 36 22 2z m-228 -68
c-7 -8 -28 -15 -48 -15 -34 0 -35 1 -16 14 18 13 64 25 73 19 2 -1 -2 -9 -9
-18z m-418 -46 c-2 -8 0 -11 4 -7 4 5 23 -4 41 -18 26 -20 42 -25 64 -20 33 6
33 5 17 -41 -8 -21 -19 -33 -31 -33 -10 0 -15 5 -12 10 3 6 -3 10 -15 10 -13
0 -26 12 -37 35 -10 21 -27 38 -40 41 -22 6 -30 24 -16 38 11 10 28 0 25 -15z
m613 -27 c-5 -4 -21 -20 -35 -36 l-25 -29 23 12 c32 17 36 10 19 -31 -30 -72
-118 -132 -352 -238 -79 -36 -150 -84 -212 -144 -24 -22 -43 -36 -43 -31 0 24
44 77 108 131 39 33 69 66 69 74 -1 8 6 15 18 15 11 0 19 6 17 13 -1 8 2 11 7
8 8 -6 133 62 226 123 22 14 68 51 103 83 34 32 68 58 75 58 7 0 8 -3 2 -8z
m-142 -11 c16 -6 10 -13 -35 -43 -30 -19 -74 -45 -99 -57 l-44 -22 35 28 c19
15 53 45 75 65 43 41 42 40 68 29z m-510 -142 c26 -36 26 -49 1 -49 -16 0 -29
24 -39 70 -8 38 -4 36 38 -21z m318 27 c-16 -19 3 -30 27 -17 11 6 22 7 26 4
3 -3 6 -2 6 4 0 6 8 14 18 17 9 4 -5 -16 -33 -43 -40 -41 -57 -51 -88 -53 -25
-1 -36 -6 -33 -15 3 -7 -1 -10 -9 -6 -19 7 -14 14 34 47 23 17 45 25 53 21 7
-5 5 0 -4 11 -17 17 -19 17 -48 -11 -34 -33 -46 -29 -33 12 8 23 17 29 49 34
21 3 41 7 43 8 2 0 -2 -5 -8 -13z m-109 -71 c-6 -36 -19 -40 -14 -4 2 16 8 29
12 29 4 0 5 -11 2 -25z m748 -15 c0 -5 5 -10 12 -10 7 0 25 -12 41 -27 17 -16
28 -21 25 -13 -27 77 -22 77 26 1 39 -64 47 -90 16 -52 -11 13 -20 20 -20 16
0 -4 16 -26 34 -49 33 -40 34 -42 16 -54 -16 -10 -18 -9 -13 5 4 11 3 14 -5 9
-7 -4 -12 -2 -12 4 0 6 -10 10 -22 9 -27 -4 -48 7 -48 24 0 7 7 3 15 -7 8 -11
15 -15 15 -9 0 15 -25 34 -34 25 -4 -4 -12 1 -17 11 -6 9 -14 15 -18 12 -5 -2
-8 3 -7 12 0 10 -4 18 -11 18 -6 0 -15 4 -20 9 -5 5 -3 6 5 2 6 -4 12 -3 12 3
0 5 -8 12 -17 14 -14 4 -13 5 4 6 21 1 25 15 10 39 -5 7 -4 12 2 12 6 0 11 -4
11 -10z m-785 -19 c3 -5 2 -12 -3 -15 -5 -3 -9 1 -9 9 0 17 3 19 12 6z m8 -23
c14 12 11 5 -7 -22 -14 -21 -26 -44 -26 -51 0 -6 -11 -22 -26 -36 -22 -21 -24
-21 -18 -4 4 11 16 32 26 47 21 30 23 42 6 32 -7 -4 -8 -3 -4 5 4 6 12 8 18 5
7 -4 8 -2 4 4 -5 8 -15 8 -33 1 -27 -10 -27 -10 -8 11 17 18 20 19 34 6 13
-14 17 -14 34 2z m-87 -50 c4 -7 4 -10 -1 -6 -4 4 -15 2 -24 -5 -14 -11 -14
-10 -2 6 16 20 18 21 27 5z m328 -54 c11 -8 42 -17 68 -20 43 -6 48 -10 59
-41 13 -40 4 -55 -33 -57 -13 -1 -22 -7 -20 -15 1 -7 -2 -10 -8 -6 -6 3 -7 12
-3 18 16 25 11 37 -15 37 -19 0 -23 -3 -14 -9 21 -13 -14 -23 -55 -15 -31 6
-32 8 -16 20 25 18 7 45 -43 62 -50 17 -75 39 -56 51 17 10 110 -6 136 -25z
m415 -61 c-44 -18 -108 -72 -144 -122 -16 -22 -33 -41 -37 -41 -5 0 -8 17 -8
39 0 31 7 46 40 79 57 60 105 82 147 69 l34 -11 -32 -13z m232 20 c13 -16 12
-17 -3 -4 -17 13 -22 21 -14 21 2 0 10 -8 17 -17z m-69 -89 c34 -61 34 -66 2
-52 -24 11 -74 92 -74 119 0 23 45 -18 72 -67z m-89 12 c28 -42 48 -60 87 -78
54 -25 65 -44 120 -207 17 -51 29 -142 13 -104 -4 10 -9 10 -26 1 -12 -7 -37
-13 -54 -14 -38 -3 -39 0 -23 108 7 46 6 76 -1 95 l-10 28 -28 -31 c-19 -21
-30 -47 -35 -82 -11 -81 -16 -80 -134 27 -59 53 -69 67 -63 85 22 58 22 76 1
76 -11 0 -20 4 -20 9 0 26 48 87 89 112 25 16 46 29 47 29 0 0 17 -24 37 -54z
m-651 -61 c21 -8 49 -15 63 -15 24 0 35 -22 17 -33 -19 -13 -107 22 -134 52
-33 37 -38 64 -5 33 12 -11 39 -28 59 -37z m-241 -2 c-12 -20 -14 -14 -5 12 4
9 9 14 11 11 3 -2 0 -13 -6 -23z m434 -288 c33 -13 54 -25 48 -25 -7 0 -13 -5
-13 -11 0 -5 5 -7 10 -4 6 3 10 2 10 -3 0 -5 -15 -8 -32 -8 -18 0 -47 -3 -65
-6 -18 -3 -42 -1 -56 7 -21 11 -28 10 -43 -4 -11 -9 1 5 26 32 24 26 47 47 50
47 3 0 32 -11 65 -25z"/>
<path d="M1588 2209 c-10 -5 -18 -15 -18 -21 0 -7 4 -7 13 1 8 6 17 8 20 4 4
-3 7 1 7 10 0 20 0 20 -22 6z"/>
<path d="M1675 2020 c-3 -6 1 -7 9 -4 18 7 21 14 7 14 -6 0 -13 -4 -16 -10z"/>
<path d="M1695 1987 c-14 -17 -18 -47 -5 -47 5 0 10 7 10 15 0 8 4 15 8 15 5
0 9 7 9 15 0 18 -8 19 -22 2z"/>
<path d="M1755 1943 c0 -25 1 -40 3 -34 2 6 8 9 12 6 5 -3 12 0 16 6 4 8 3 9
-4 5 -7 -4 -12 -3 -12 3 0 5 6 12 13 14 10 4 10 6 0 6 -7 1 -13 7 -13 15 0 8
-3 17 -7 19 -5 3 -8 -15 -8 -40z"/>
<path d="M1700 1930 c-13 -8 -12 -10 3 -10 9 0 17 5 17 10 0 12 -1 12 -20 0z"/>
<path d="M1732 1915 c0 -16 2 -22 5 -12 2 9 2 23 0 30 -3 6 -5 -1 -5 -18z"/>
<path d="M1607 1923 c-11 -10 -8 -41 5 -49 8 -5 9 -2 5 9 -3 9 1 23 9 32 13
12 13 15 1 15 -7 0 -17 -3 -20 -7z"/>
<path d="M1660 1908 c-12 -8 -12 -9 2 -4 10 3 20 1 23 -4 9 -14 25 -12 25 2 0
6 -3 8 -7 5 -3 -4 -11 -3 -17 3 -7 5 -17 5 -26 -2z"/>
<path d="M1847 1901 c-4 -17 -3 -21 5 -13 5 5 8 16 6 23 -3 8 -7 3 -11 -10z"/>
<path d="M1570 1891 c0 -10 39 -46 43 -40 2 2 -7 14 -20 26 -13 12 -23 19 -23
14z"/>
<path d="M1637 1883 c-3 -5 5 -8 18 -8 13 0 21 3 18 8 -2 4 -10 7 -18 7 -8 0
-16 -3 -18 -7z"/>
<path d="M1810 1824 c0 -8 5 -12 10 -9 6 4 8 11 5 16 -9 14 -15 11 -15 -7z"/>
<path d="M1413 1915 c0 -33 2 -45 4 -27 2 18 2 45 0 60 -2 15 -4 0 -4 -33z"/>
<path d="M1466 1725 c-3 -8 -1 -15 4 -15 6 0 10 7 10 15 0 8 -2 15 -4 15 -2 0
-6 -7 -10 -15z"/>
<path d="M992 1595 c0 -16 2 -22 5 -12 2 9 2 23 0 30 -3 6 -5 -1 -5 -18z"/>
<path d="M2162 2250 c0 -14 2 -19 5 -12 2 6 2 18 0 25 -3 6 -5 1 -5 -13z"/>
<path d="M2234 1705 l-22 -24 32 6 c29 6 45 18 46 36 0 16 -36 5 -56 -18z"/>
<path d="M2245 1589 c11 -16 56 -30 77 -23 15 4 17 9 7 20 -13 16 -94 20 -84
3z"/>
<path d="M2014 1277 c21 -26 40 -47 43 -47 7 0 -56 78 -70 87 -6 4 6 -14 27
-40z"/>
<path d="M2138 1193 c7 -3 16 -2 19 1 4 3 -2 6 -13 5 -11 0 -14 -3 -6 -6z"/>
<path d="M2165 1180 c-7 -12 117 -50 159 -49 29 2 28 2 -9 9 l-40 7 53 2 c28
0 52 4 52 9 0 4 -31 6 -70 5 -40 0 -70 3 -70 9 0 6 -13 7 -31 3 -22 -5 -29 -4
-25 4 4 6 3 11 -3 11 -5 0 -12 -4 -16 -10z"/>
<path d="M1030 1125 c0 -8 2 -15 4 -15 2 0 6 7 10 15 3 8 1 15 -4 15 -6 0 -10
-7 -10 -15z"/>
<path d="M1103 1123 c9 -2 23 -2 30 0 6 3 -1 5 -18 5 -16 0 -22 -2 -12 -5z"/>
<path d="M1195 1110 c3 -5 8 -10 11 -10 2 0 4 5 4 10 0 6 -5 10 -11 10 -5 0
-7 -4 -4 -10z"/>
<path d="M64 999 c-3 -5 6 -9 20 -9 31 0 34 6 6 13 -11 3 -23 1 -26 -4z"/>
<path d="M1310 980 c-8 -5 -10 -10 -5 -10 6 0 17 5 25 10 8 5 11 10 5 10 -5 0
-17 -5 -25 -10z"/>
<path d="M148 963 c7 -3 16 -2 19 1 4 3 -2 6 -13 5 -11 0 -14 -3 -6 -6z"/>
<path d="M20 939 c-17 -13 -18 -17 -5 -10 33 17 51 31 40 31 -5 0 -21 -10 -35
-21z"/>
<path d="M47 898 c-70 -49 -64 -65 26 -64 85 1 104 15 79 56 -9 14 -17 26 -18
28 0 1 -14 -2 -30 -8 -27 -9 -28 -9 -10 5 37 29 0 15 -47 -17z"/>
<path d="M618 813 c7 -3 16 -2 19 1 4 3 -2 6 -13 5 -11 0 -14 -3 -6 -6z"/>
<path d="M2 743 c3 -59 5 -68 23 -70 11 -1 33 -5 48 -9 28 -7 28 -6 23 36 -2
23 -2 48 1 56 9 24 40 16 70 -19 16 -18 36 -31 46 -29 12 2 17 -3 18 -20 0
-13 3 -18 6 -11 3 10 9 10 23 1 28 -18 38 1 12 20 -18 14 -20 20 -10 30 10 10
9 16 -5 29 -9 10 -17 13 -17 7 0 -6 -12 -16 -26 -23 -24 -11 -30 -9 -54 14
-18 17 -45 28 -83 35 -32 5 -62 12 -68 15 -6 5 -9 -16 -7 -62z"/>
<path d="M350 781 c0 -10 28 -41 36 -41 2 0 -3 11 -12 25 -17 26 -24 31 -24
16z"/>
<path d="M317 759 c-9 -6 -22 -7 -27 -4 -12 7 -12 3 -4 -19 7 -17 31 -21 53
-7 21 14 1 42 -22 30z"/>
<path d="M240 651 c0 -6 4 -13 10 -16 6 -3 7 1 4 9 -7 18 -14 21 -14 7z"/>
<path d="M347 648 c7 -8 10 -18 6 -22 -4 -3 2 -12 12 -20 11 -8 15 -18 10 -26
-6 -10 -10 -9 -17 4 -8 14 -13 15 -24 5 -11 -9 -19 -8 -35 7 -17 15 -16 11 5
-21 15 -22 32 -40 38 -40 6 0 20 12 31 27 24 32 17 72 -16 89 -19 11 -20 10
-10 -3z"/>
<path d="M13 583 c-15 -5 -17 -23 -4 -23 5 0 11 7 15 15 3 8 4 15 3 14 -1 0
-8 -3 -14 -6z"/>
<path d="M1575 350 c-10 -11 -16 -22 -14 -24 2 -2 12 7 22 20 22 29 17 32 -8
4z"/>
<path d="M1480 294 c-11 -29 -6 -44 15 -44 16 0 31 43 20 59 -11 18 -25 12
-35 -15z"/>
<path d="M1539 293 c-13 -16 -12 -17 4 -4 16 13 21 21 13 21 -2 0 -10 -8 -17
-17z"/>
<path d="M1575 299 c-4 -6 -5 -12 -2 -15 2 -3 7 2 10 11 7 17 1 20 -8 4z"/>
<path d="M1615 270 c-3 -6 1 -7 9 -4 18 7 21 14 7 14 -6 0 -13 -4 -16 -10z"/>
<path d="M1567 253 c-4 -3 -7 -17 -7 -30 0 -27 25 -31 32 -5 8 31 -7 53 -25
35z"/>
<path d="M677 111 c7 -26 46 -29 41 -3 -2 9 -13 18 -25 20 -17 3 -20 -1 -16
-17z"/>
<path d="M838 62 c-33 -4 -35 -13 -8 -37 17 -15 24 -16 50 -5 44 18 13 49 -42
42z"/>
<path d="M710 25 l-23 -25 26 0 c22 0 27 5 27 25 0 14 -1 25 -3 25 -2 0 -14
-11 -27 -25z"/>
<path d="M770 20 c0 -14 7 -20 22 -20 20 0 21 1 3 20 -10 11 -20 20 -22 20 -1
0 -3 -9 -3 -20z"/>
</g>
</svg>
